<?xml version="1.0" standalone="no"?>
<!DOCTYPE svg PUBLIC "-//W3C//DTD SVG 20010904//EN"
 "http://www.w3.org/TR/2001/REC-SVG-20010904/DTD/svg10.dtd">
<svg version="1.0" xmlns="http://www.w3.org/2000/svg"
 width="938.000000pt" height="266.000000pt" viewBox="0 0 938.000000 266.000000"
 preserveAspectRatio="xMidYMid meet">

<g transform="translate(0.000000,266.000000) scale(0.100000,-0.100000)"
fill="#000000" stroke="none">
<path d="M1990 2466 c0 -2 9 -6 20 -9 11 -3 18 -1 14 4 -5 9 -34 13 -34 5z"/>
<path d="M2255 2271 c-3 -5 0 -13 6 -17 7 -4 9 -3 5 4 -3 5 0 13 6 15 9 4 10
6 1 6 -6 1 -14 -3 -18 -8z"/>
<path d="M2236 2173 c-3 -3 -6 -30 -6 -59 0 -50 -2 -54 -26 -60 l-27 -7 29
-13 29 -12 -27 -1 c-26 -1 -28 -4 -28 -41 l0 -40 -40 0 -40 0 0 -40 0 -40 -40
0 -40 0 0 -40 0 -40 -40 0 -40 0 0 -40 c0 -22 -4 -40 -10 -40 -5 0 -10 7 -10
17 0 15 -1 15 -18 0 -10 -10 -24 -17 -30 -17 -7 0 -12 -16 -12 -40 0 -40 -15
-55 -22 -22 -3 13 -10 8 -27 -20 -26 -43 -37 -47 -46 -18 -4 11 -11 18 -16 14
-5 -3 -7 -13 -4 -23 3 -11 -8 -31 -31 -56 -20 -22 -31 -41 -25 -43 6 -2 9 -8
6 -12 -3 -5 -12 -7 -20 -3 -18 6 -19 -8 -2 -26 10 -11 9 -12 -2 -6 -11 6 -13
4 -7 -10 6 -16 4 -16 -11 -4 -11 9 -14 10 -9 2 4 -8 2 -13 -7 -13 -18 0 -33
-29 -36 -67 -1 -16 -3 -16 -11 -3 -8 12 -10 10 -10 -8 0 -15 4 -21 12 -16 7 4
8 3 4 -5 -5 -8 -12 -9 -20 -2 -9 7 -17 1 -32 -22 -10 -18 -19 -39 -19 -47 -1
-8 -6 -14 -13 -13 -7 2 -9 -4 -5 -14 5 -12 3 -14 -8 -8 -12 7 -12 6 -1 -6 11
-12 15 -12 23 3 6 10 16 14 30 11 26 -7 39 11 34 49 -2 15 0 28 4 28 15 0 9
-54 -10 -95 -13 -26 -17 -50 -13 -72 6 -30 4 -33 -20 -33 -30 0 -32 6 -11 47
21 42 12 64 -20 49 -13 -6 -27 -21 -30 -33 -3 -12 -18 -27 -34 -34 -16 -7 -34
-21 -41 -32 -9 -15 -9 -18 2 -11 7 4 -1 -7 -19 -24 -19 -20 -30 -39 -26 -48 3
-8 2 -14 -3 -12 -9 3 -15 -6 -13 -19 1 -5 2 -14 3 -22 0 -8 7 -16 14 -19 9 -3
13 4 12 19 -1 13 -2 31 -1 39 1 13 2 13 11 0 6 -9 10 -10 10 -3 0 7 -7 16 -16
21 -11 6 -13 11 -5 16 6 4 11 3 11 -3 0 -5 9 -9 19 -8 11 0 17 5 15 9 -3 4 -1
16 5 25 9 17 10 17 17 0 4 -11 0 -25 -10 -36 -19 -20 -21 -35 -4 -25 7 4 8 3
4 -4 -4 -7 -15 -12 -24 -12 -12 0 -13 -3 -4 -12 7 -7 12 -20 12 -29 0 -10 6
-19 13 -22 6 -2 9 -8 4 -12 -4 -5 -14 0 -21 11 -15 20 -55 26 -69 9 -5 -6 -7
-3 -3 7 3 10 0 20 -7 24 -7 4 -9 3 -4 -1 4 -5 0 -19 -9 -33 -11 -17 -12 -22
-3 -17 11 6 11 5 2 -5 -13 -14 -37 -4 -27 12 4 7 2 8 -5 4 -6 -4 -9 -11 -6
-16 3 -5 -11 -8 -32 -7 -28 1 -48 12 -78 39 -22 20 -42 35 -44 32 -2 -2 4 -11
15 -20 16 -13 16 -15 2 -10 -21 6 -78 -12 -78 -25 0 -5 4 -9 10 -9 18 0 -3
-31 -31 -46 -16 -8 -36 -28 -44 -44 -11 -21 -27 -32 -55 -40 -39 -11 -51 -25
-28 -32 7 -3 3 -13 -12 -28 -22 -22 -24 -23 -30 -4 -7 18 -7 18 -17 -1 -6 -11
-13 -32 -17 -47 -4 -17 -18 -34 -36 -43 -16 -8 -36 -28 -44 -43 -8 -16 -26
-33 -40 -40 -14 -6 -32 -25 -40 -41 -9 -16 -25 -32 -36 -36 -11 -4 -28 -17
-36 -31 -14 -20 -25 -24 -73 -26 l-56 -1 51 -6 c43 -5 49 -8 38 -19 -7 -7 -17
-13 -21 -13 -5 -1 -17 -8 -28 -15 -17 -12 89 -14 727 -14 489 0 764 4 796 11
58 12 158 70 154 88 -1 7 2 10 7 7 12 -8 58 61 81 123 19 49 20 80 18 839 -1
433 -3 768 -5 745 -3 -29 -9 -43 -18 -43 -12 0 -15 -26 -18 -132 l-3 -133 -2
133 c-1 80 -6 132 -12 132 -5 0 -10 5 -10 11 0 5 5 7 10 4 6 -4 10 6 10 24 0
30 -11 46 -24 34z m-56 -317 c0 -3 -4 -8 -10 -11 -5 -3 -10 -1 -10 4 0 6 5 11
10 11 6 0 10 -2 10 -4z m-80 -80 c0 -3 -4 -8 -10 -11 -5 -3 -10 -1 -10 4 0 6
5 11 10 11 6 0 10 -2 10 -4z m187 -233 c-2 -32 -3 -8 -3 52 0 61 1 87 3 58 2
-29 2 -78 0 -110z m-531 2 c0 -16 -6 -23 -13 -20 -17 6 -16 -3 2 -21 8 -9 15
-21 15 -27 0 -6 -7 -1 -16 11 -13 18 -19 21 -30 11 -10 -8 -14 -8 -14 0 0 6 5
11 10 11 6 0 10 5 10 10 0 8 27 43 36 49 1 1 1 -10 0 -24z m-16 -65 c0 -5 -7
-10 -16 -10 -14 0 -14 -1 0 -16 20 -19 21 -44 2 -44 -18 0 -37 24 -34 41 5 25
48 51 48 29z m-100 -85 c0 -8 -7 -15 -16 -15 -14 0 -14 3 -4 15 7 8 14 15 16
15 2 0 4 -7 4 -15z m34 -3 c3 -5 -1 -9 -9 -9 -8 0 -12 4 -9 9 3 4 7 8 9 8 2 0
6 -4 9 -8z m86 -2 c0 -5 -4 -10 -10 -10 -5 0 -10 5 -10 10 0 6 5 10 10 10 6 0
10 -4 10 -10z m-193 -117 c1 -21 0 -32 -3 -25 -9 19 -24 14 -18 -5 5 -17 5
-17 -6 0 -13 20 -4 41 12 31 7 -5 9 -2 5 8 -4 13 0 28 8 28 0 0 2 -17 2 -37z
m-61 -129 c-4 -9 -9 -15 -11 -12 -3 3 -3 13 1 22 4 9 9 15 11 12 3 -3 3 -13
-1 -22z m761 -36 c-3 -7 -5 -2 -5 12 0 14 2 19 5 13 2 -7 2 -19 0 -25z m-852
-58 c-3 -5 -11 -10 -16 -10 -6 0 -7 5 -4 10 3 6 11 10 16 10 6 0 7 -4 4 -10z
m-275 -140 c0 -5 -5 -10 -11 -10 -5 0 -7 5 -4 10 3 6 8 10 11 10 2 0 4 -4 4
-10z m34 2 c3 -5 -1 -9 -9 -9 -8 0 -12 4 -9 9 3 4 7 8 9 8 2 0 6 -4 9 -8z m76
-36 c0 -11 -19 -15 -25 -6 -3 5 1 10 9 10 9 0 16 -2 16 -4z m-270 -220 c0 -3
-4 -8 -10 -11 -5 -3 -10 -1 -10 4 0 6 5 11 10 11 6 0 10 -2 10 -4z m-80 -80
c0 -3 -4 -8 -10 -11 -5 -3 -10 -1 -10 4 0 6 5 11 10 11 6 0 10 -2 10 -4z m-80
-80 c0 -3 -4 -8 -10 -11 -5 -3 -10 -1 -10 4 0 6 5 11 10 11 6 0 10 -2 10 -4z
m-80 -80 c0 -3 -4 -8 -10 -11 -5 -3 -10 -1 -10 4 0 6 5 11 10 11 6 0 10 -2 10
-4z"/>
<path d="M2271 2124 c0 -11 3 -14 6 -6 3 7 2 16 -1 19 -3 4 -6 -2 -5 -13z"/>
<path d="M6889 2059 c-127 -13 -250 -103 -304 -222 -35 -75 -49 -189 -36 -292
29 -237 180 -375 410 -375 210 0 357 107 407 295 18 64 18 236 0 300 -56 213
-230 319 -477 294z m178 -174 c94 -43 141 -154 130 -302 -9 -115 -52 -195
-127 -233 -93 -48 -188 -33 -260 39 -64 64 -84 132 -77 255 7 137 42 201 131
242 68 32 135 31 203 -1z"/>
<path d="M2970 2041 c0 -8 142 -415 260 -744 l42 -118 96 3 96 3 153 430 c84
237 153 431 153 433 0 1 -42 2 -93 2 l-94 0 -102 -311 c-57 -171 -106 -307
-111 -303 -4 5 -54 145 -111 312 l-104 302 -92 0 c-51 0 -93 -4 -93 -9z"/>
<path d="M3987 1983 c-14 -38 -86 -223 -160 -413 -74 -190 -138 -355 -141
-367 -7 -23 -6 -23 86 -23 l94 0 35 98 34 97 173 0 173 0 37 -95 38 -95 92 -3
c66 -2 92 1 92 9 0 7 -75 203 -167 436 l-168 423 -96 0 -97 0 -25 -67z m178
-298 c26 -71 50 -136 53 -142 3 -10 -22 -13 -107 -13 -61 0 -111 3 -111 8 -1
20 104 292 110 285 4 -4 28 -66 55 -138z"/>
<path d="M5370 1615 l0 -435 90 0 90 0 0 435 0 435 -90 0 -90 0 0 -435z"/>
<path d="M5710 1616 l0 -436 183 0 c100 0 211 5 246 10 146 24 236 110 277
265 16 58 18 251 4 312 -27 116 -96 207 -190 252 -54 25 -61 26 -287 29 l-233
4 0 -436z m435 258 c82 -43 109 -115 103 -284 -3 -98 -7 -122 -28 -164 -36
-72 -74 -89 -217 -94 l-113 -5 0 288 0 287 108 -4 c84 -2 116 -8 147 -24z"/>
<path d="M7520 1615 l0 -436 88 3 87 3 2 174 c1 96 6 177 10 181 14 13 112 -6
141 -27 15 -11 74 -90 132 -176 l105 -156 108 -1 c125 0 122 -17 25 138 -82
131 -115 172 -165 213 l-43 34 49 16 c27 8 61 23 75 32 101 67 125 237 47 345
-57 78 -124 92 -432 92 l-229 0 0 -435z m465 271 c41 -17 55 -42 55 -95 0 -65
-32 -93 -116 -102 -38 -5 -104 -8 -146 -8 l-78 -1 0 110 0 110 125 0 c86 0
136 -5 160 -14z"/>
<path d="M8623 2013 c-67 -162 -313 -806 -313 -821 0 -8 26 -12 89 -12 l88 0
16 43 c9 23 26 68 37 100 l21 57 173 0 172 0 36 -97 36 -98 97 -3 c90 -3 97
-1 91 15 -4 10 -81 206 -173 436 l-165 417 -95 0 -94 0 -16 -37z m217 -474 c0
-5 -49 -9 -110 -9 -60 0 -110 2 -110 4 0 7 100 278 107 288 5 9 113 -261 113
-283z"/>
<path d="M4640 1610 l0 -430 305 0 305 0 0 75 0 75 -215 0 -215 0 0 355 0 355
-90 0 -90 0 0 -430z"/>
<path d="M2116 1971 c-18 -7 -18 -8 5 -14 35 -10 39 -9 39 8 0 16 -14 18 -44
6z"/>
<path d="M2036 1891 c-18 -7 -18 -8 5 -14 35 -10 39 -9 39 8 0 16 -14 18 -44
6z"/>
<path d="M1956 1811 c-18 -7 -18 -8 5 -14 35 -10 39 -9 39 8 0 16 -14 18 -44
6z"/>
<path d="M1675 1690 c27 -12 43 -12 25 0 -8 5 -22 9 -30 9 -10 0 -8 -3 5 -9z"/>
<path d="M1727 1693 c-4 -3 -7 -11 -7 -17 0 -6 5 -5 12 2 6 6 9 14 7 17 -3 3
-9 2 -12 -2z"/>
<path d="M1520 1571 c0 -6 4 -13 10 -16 6 -3 7 1 4 9 -7 18 -14 21 -14 7z"/>
<path d="M1455 1530 c-3 -5 -1 -10 4 -10 6 0 11 5 11 10 0 6 -2 10 -4 10 -3 0
-8 -4 -11 -10z"/>
<path d="M1379 1343 c-13 -16 -12 -17 4 -4 9 7 17 15 17 17 0 8 -8 3 -21 -13z"/>
<path d="M1292 1290 c-13 -9 -9 -37 5 -37 8 0 11 7 8 17 -4 14 0 17 20 15 14
-2 27 0 29 4 5 8 -52 9 -62 1z"/>
<path d="M1060 1261 c0 -6 4 -13 10 -16 6 -3 7 1 4 9 -7 18 -14 21 -14 7z"/>
<path d="M1325 1261 c-3 -5 -2 -12 3 -15 5 -3 9 1 9 9 0 17 -3 19 -12 6z"/>
<path d="M1295 1230 c3 -5 8 -10 11 -10 2 0 4 5 4 10 0 6 -5 10 -11 10 -5 0
-7 -4 -4 -10z"/>
<path d="M1176 1175 c8 -13 12 -30 8 -37 -5 -10 -4 -10 5 -2 9 8 9 17 0 37 -7
15 -16 27 -21 27 -5 0 -1 -11 8 -25z"/>
<path d="M1140 1181 c0 -6 4 -13 10 -16 6 -3 7 1 4 9 -7 18 -14 21 -14 7z"/>
<path d="M890 1176 c0 -2 8 -10 18 -17 15 -13 16 -12 3 4 -13 16 -21 21 -21
13z"/>
<path d="M1460 1168 c0 -9 -6 -19 -12 -21 -10 -4 -10 -6 0 -6 14 -1 28 26 18
36 -3 4 -6 -1 -6 -9z"/>
<path d="M1230 1146 c0 -2 7 -9 15 -16 13 -11 14 -10 9 4 -5 14 -24 23 -24 12z"/>
<path d="M1216 1127 c3 -10 9 -15 12 -12 3 3 0 11 -7 18 -10 9 -11 8 -5 -6z"/>
<path d="M1055 1008 c8 -21 32 -30 41 -17 3 6 1 16 -5 22 -9 9 -10 7 -5 -8 7
-20 7 -20 -15 -1 -17 16 -21 17 -16 4z"/>
<path d="M1005 931 c-3 -6 0 -11 7 -12 7 0 4 -4 -7 -9 -17 -8 -16 -9 9 -9 26
-1 27 1 15 17 -7 9 -14 18 -15 20 -1 2 -5 -1 -9 -7z"/>
<path d="M3520 879 c-45 -13 -70 -43 -70 -83 1 -52 26 -74 115 -95 67 -16 95
-36 95 -66 0 -33 -35 -55 -88 -55 -43 0 -70 18 -98 66 -10 15 -14 17 -25 7
-21 -21 1 -65 46 -91 33 -19 50 -22 95 -18 45 4 60 10 83 36 57 64 20 136 -83
160 -68 15 -100 35 -100 60 0 58 137 68 155 11 4 -12 15 -21 26 -21 16 0 19 5
14 23 -8 28 -51 67 -73 67 -9 0 -26 2 -37 4 -11 3 -36 0 -55 -5z"/>
<path d="M6720 883 c-37 -7 -90 -51 -106 -89 -19 -45 -18 -128 2 -166 58 -112
226 -114 278 -3 22 46 23 133 1 179 -27 57 -104 91 -175 79z m98 -49 c34 -24
52 -68 52 -130 0 -50 -3 -59 -34 -90 -28 -28 -41 -34 -79 -34 -70 0 -117 55
-117 137 0 47 27 100 59 118 35 19 91 19 119 -1z"/>
<path d="M7684 878 c-111 -23 -150 -178 -72 -290 41 -59 158 -60 215 -3 38 38
44 75 13 75 -11 0 -20 -6 -20 -14 0 -8 -14 -26 -31 -40 -69 -58 -160 -18 -174
76 -8 53 7 118 34 142 43 39 138 28 159 -19 8 -17 17 -22 31 -18 25 6 26 12 5
41 -30 43 -95 63 -160 50z"/>
<path d="M8458 880 c-80 -15 -118 -67 -119 -164 -2 -107 55 -171 151 -171 105
0 160 59 160 170 0 74 -24 122 -71 146 -46 23 -77 28 -121 19z m93 -46 c53
-27 75 -117 45 -188 -19 -45 -52 -66 -104 -66 -37 0 -50 6 -78 34 -32 32 -34
38 -34 101 0 63 2 69 34 101 39 39 86 45 137 18z"/>
<path d="M3035 718 c56 -145 65 -163 87 -166 23 -3 28 7 86 155 34 87 62 162
62 166 0 4 -9 7 -19 7 -20 0 -21 -1 -85 -180 -18 -52 -37 -95 -42 -97 -5 -2
-31 60 -58 137 -44 122 -52 140 -72 140 -21 0 -19 -8 41 -162z"/>
<path d="M3330 715 c0 -158 1 -165 20 -165 19 0 20 7 20 165 0 158 -1 165 -20
165 -19 0 -20 -7 -20 -165z"/>
<path d="M3853 863 c-4 -10 -30 -80 -60 -156 -29 -75 -53 -142 -53 -147 0 -6
9 -10 19 -10 14 0 24 13 36 50 l17 50 72 0 72 0 18 -50 c15 -41 22 -50 42 -50
13 0 24 3 24 6 0 3 -16 44 -36 92 -101 245 -94 232 -120 232 -14 0 -27 -7 -31
-17z m63 -105 c12 -37 20 -69 16 -72 -3 -3 -28 -6 -55 -6 -55 0 -53 -8 -21 92
11 32 23 56 28 55 5 -2 20 -33 32 -69z"/>
<path d="M4190 715 c0 -158 1 -165 20 -165 18 0 20 7 20 75 l0 75 80 0 c73 0
80 2 80 20 0 18 -7 20 -81 20 l-80 0 3 53 3 52 93 3 c73 2 92 6 92 17 0 12
-21 15 -115 15 l-115 0 0 -165z"/>
<path d="M4480 717 c0 -156 1 -165 20 -170 19 -5 20 0 20 75 l0 81 46 -7 c57
-7 63 -12 111 -87 31 -49 43 -59 66 -59 20 0 26 4 21 13 -28 47 -70 105 -88
119 -21 17 -21 17 13 29 58 20 75 104 29 146 -16 15 -41 19 -129 21 l-109 4 0
-165z m185 123 c30 -11 39 -31 31 -64 -7 -30 -50 -46 -122 -46 l-54 0 0 60 0
60 59 0 c33 0 71 -4 86 -10z"/>
<path d="M4903 863 c-3 -10 -30 -80 -60 -156 -29 -76 -53 -143 -53 -148 0 -5
9 -9 19 -9 14 0 23 11 32 38 18 58 25 62 99 62 l67 0 21 -49 c12 -31 27 -50
41 -54 11 -3 21 -1 21 4 0 5 -30 81 -66 169 -60 144 -69 160 -91 160 -13 0
-26 -7 -30 -17z m63 -99 c13 -32 23 -65 23 -71 1 -14 -94 -19 -102 -5 -8 11
37 142 47 139 5 -2 20 -30 32 -63z"/>
<path d="M5140 760 c0 -146 12 -184 66 -206 70 -29 164 -3 184 52 6 14 10 81
10 150 0 117 -1 124 -20 124 -19 0 -20 -7 -20 -109 0 -158 -16 -191 -95 -191
-25 0 -43 8 -60 25 -24 23 -25 30 -25 150 0 118 -1 125 -20 125 -19 0 -20 -7
-20 -120z"/>
<path d="M5480 715 l0 -165 88 0 c137 0 174 32 180 153 6 133 -40 177 -185
177 l-83 0 0 -165z m186 110 c14 -9 29 -27 34 -41 14 -35 12 -114 -3 -144 -18
-36 -73 -61 -127 -58 l-45 3 -3 119 c-1 66 0 126 3 134 7 19 106 10 141 -13z"/>
<path d="M5950 716 c0 -159 1 -166 20 -166 18 0 20 7 20 65 l0 65 58 1 c83 2
112 11 134 40 29 38 28 103 0 132 -20 19 -35 22 -127 25 l-105 4 0 -166z m195
114 c20 -17 19 -74 -2 -91 -10 -9 -41 -14 -82 -14 l-66 0 -3 49 c-5 76 -2 80
73 73 36 -2 72 -10 80 -17z"/>
<path d="M6270 716 c0 -158 1 -166 20 -166 17 0 19 8 22 73 l3 72 43 -1 c50
-1 74 -20 117 -93 25 -42 35 -51 58 -51 20 0 26 4 21 13 -27 46 -70 104 -87
118 -19 15 -18 16 13 29 57 24 73 106 28 147 -16 15 -41 19 -129 21 l-109 4 0
-166z m190 121 c19 -10 25 -20 25 -47 0 -31 -4 -36 -35 -47 -19 -7 -59 -12
-87 -12 l-53 -1 0 60 0 60 63 0 c34 0 73 -6 87 -13z"/>
<path d="M6960 866 c0 -11 15 -16 53 -18 l52 -3 3 -147 c2 -140 4 -148 22
-148 19 0 20 7 20 150 l0 150 55 0 c42 0 55 3 55 15 0 13 -21 15 -130 15 -107
0 -130 -3 -130 -14z"/>
<path d="M7270 715 l0 -165 125 0 c104 0 125 2 125 15 0 12 -18 15 -105 15
l-105 0 0 60 0 60 96 0 c86 0 95 2 92 18 -3 14 -17 17 -96 20 l-93 3 3 52 3
52 98 3 c77 2 97 6 97 17 0 12 -21 15 -120 15 l-120 0 0 -165z"/>
<path d="M7900 865 c0 -12 13 -15 55 -15 l55 0 0 -150 c0 -143 1 -150 20 -150
19 0 20 7 20 134 0 74 3 141 6 150 5 12 20 16 60 16 41 0 54 4 54 15 0 13 -22
15 -135 15 -113 0 -135 -2 -135 -15z"/>
<path d="M8221 715 c-2 -159 -1 -165 19 -165 19 0 20 6 20 165 0 156 -1 165
-19 165 -18 0 -19 -9 -20 -165z"/>
<path d="M8713 716 l1 -166 23 0 c22 0 22 2 25 125 l3 125 83 -125 c69 -103
87 -125 107 -125 l25 0 0 165 c0 158 -1 165 -20 165 -19 0 -20 -7 -20 -125 0
-69 -3 -125 -7 -125 -5 1 -44 56 -88 123 -65 99 -85 123 -106 125 l-26 3 0
-165z"/>
<path d="M173 700 c0 -25 2 -35 4 -22 2 12 2 32 0 45 -2 12 -4 2 -4 -23z"/>
<path d="M339 393 c-13 -16 -12 -17 4 -4 9 7 17 15 17 17 0 8 -8 3 -21 -13z"/>
<path d="M440 390 c0 -5 5 -10 10 -10 6 0 10 5 10 10 0 6 -4 10 -10 10 -5 0
-10 -4 -10 -10z"/>
<path d="M377 359 c7 -7 15 -10 18 -7 3 3 -2 9 -12 12 -14 6 -15 5 -6 -5z"/>
<path d="M425 350 c3 -5 11 -10 16 -10 6 0 7 5 4 10 -3 6 -11 10 -16 10 -6 0
-7 -4 -4 -10z"/>
<path d="M480 345 c0 -8 4 -15 10 -15 5 0 7 7 4 15 -4 8 -8 15 -10 15 -2 0 -4
-7 -4 -15z"/>
</g>
</svg>
